<?xml version="1.0" encoding="UTF-8"?>
<svg version="1.1" xmlns="http://www.w3.org/2000/svg" width="2816" height="1536">
<path d="M0 0 C929.28 0 1858.56 0 2816 0 C2816 506.88 2816 1013.76 2816 1536 C1886.72 1536 957.44 1536 0 1536 C0 1029.12 0 522.24 0 0 Z " fill="#B49150" transform="translate(0,0)"/>
<path d="M0 0 C1.91015625 0.28515625 1.91015625 0.28515625 4 1 C4.77525503 2.85387073 5.53150643 4.71901659 6.16796875 6.625 C10.97203988 20.33802932 20.85151491 33.10315043 33.9375 39.75 C35.61753873 40.51656775 37.30555507 41.26582521 39 42 C41.04203801 42.93669088 43.08370772 43.87418511 45.125 44.8125 C46.74913711 45.54358665 48.37381778 46.27347372 50 47 C49.67 47.99 49.34 48.98 49 50 C46.70906191 51.01387469 44.4844754 51.8694149 42.125 52.6875 C27.41777819 58.179947 16.39718227 68.20715419 9 82 C7.15653555 86.27665178 5.51857384 90.59823526 4 95 C2.68 95 1.36 95 0 95 C-0.3403125 94.04480469 -0.680625 93.08960938 -1.03125 92.10546875 C-6.86430578 76.32118293 -15.79044247 63.7981206 -31 56 C-35.92019483 53.77391185 -40.87569994 51.70810002 -46 50 C-45.96484375 48.20703125 -45.96484375 48.20703125 -45 46 C-42.51069621 44.71490815 -40.16436316 43.68147678 -37.5625 42.6875 C-20.64505447 35.75162882 -10.28214353 25.39449095 -3.1875 8.5625 C-2.04337929 5.72256284 -0.96825802 2.90477406 0 0 Z " fill="#D9C7A5" transform="translate(2702,1376)"/>
<path d="M0 0 C3.3125 2 3.3125 2 6 4 C6.99 4.33 7.98 4.66 9 5 C9.9921875 7.109375 9.9921875 7.109375 10.875 9.75 C12.58568908 14.39803506 14.40339367 16.70311086 18 20 C18 20.99 18 21.98 18 23 C14.625 22.75 14.625 22.75 11 22 C8.44905018 19.00540673 8.82751655 15.79463585 9 12 C8.360625 11.87625 7.72125 11.7525 7.0625 11.625 C6.381875 11.41875 5.70125 11.2125 5 11 C4.67 10.34 4.34 9.68 4 9 C1.69034152 7.94647157 -0.6429774 6.94280904 -3 6 C-3 5.34 -3 4.68 -3 4 C-5.97 3.67 -8.94 3.34 -12 3 C-12 2.34 -12 1.68 -12 1 C-8.19133904 -1.69780151 -4.29863511 -1.17611982 0 0 Z " fill="#9D773F" transform="translate(1830,664)"/>
<path d="M0 0 C1.32 0.66 2.64 1.32 4 2 C3.34 3.98 2.68 5.96 2 8 C2.99 8.33 3.98 8.66 5 9 C4.67 9.99 4.34 10.98 4 12 C3.34 12 2.68 12 2 12 C1.67 12.99 1.34 13.98 1 15 C-0.31647119 15.69937532 -1.65022151 16.36729133 -3 17 C-3.33 17.66 -3.66 18.32 -4 19 C-6.0625 19.625 -6.0625 19.625 -8 20 C-10 17 -10 17 -9.5 14.4375 C-9.335 13.633125 -9.17 12.82875 -9 12 C-9.66 11.34 -10.32 10.68 -11 10 C-10.67 9.34 -10.34 8.68 -10 8 C-7.35139573 7.40644386 -4.70802678 7.25790731 -2 7 C-1.34 4.69 -0.68 2.38 0 0 Z " fill="#AE8A48" transform="translate(1790,1375)"/>
<path d="M0 0 C0.66 1.32 1.32 2.64 2 4 C2.66 4 3.32 4 4 4 C3.690625 4.598125 3.38125 5.19625 3.0625 5.8125 C1.89790296 8.08956772 1.89790296 8.08956772 1 11 C2.98 10.67 4.96 10.34 7 10 C6.21625 10.9075 5.4325 11.815 4.625 12.75 C2.69947504 15.05190236 1.17794259 17.21577207 0 20 C-1.32 20 -2.64 20 -4 20 C-4.66 18.35 -5.32 16.7 -6 15 C-4.35 14.34 -2.7 13.68 -1 13 C-1 11.68 -1 10.36 -1 9 C-1.99 8.67 -2.98 8.34 -4 8 C-4 7.01 -4 6.02 -4 5 C-3.01 4.34 -2.02 3.68 -1 3 C-0.67 2.01 -0.34 1.02 0 0 Z " fill="#AF8C49" transform="translate(1776,1337)"/>
<path d="M0 0 C1.65 0 3.3 0 5 0 C4.2884375 0.61875 4.2884375 0.61875 3.5625 1.25 C1.83733482 3.182185 1.43415125 4.48192275 1 7 C1.66 7 2.32 7 3 7 C3.33 6.34 3.66 5.68 4 5 C4.66 5 5.32 5 6 5 C5.67 6.98 5.34 8.96 5 11 C4.34 11 3.68 11 3 11 C3 11.66 3 12.32 3 13 C0.23735711 13.59732819 -2.16032769 14 -5 14 C-5.35130264 8.64263477 -5.35130264 8.64263477 -5 6 C-3.0625 4.1875 -3.0625 4.1875 -1 3 C-0.67 2.01 -0.34 1.02 0 0 Z " fill="#A48040" transform="translate(2552,1336)"/>
<path d="M0 0 C3.96 0.33 7.92 0.66 12 1 C12 4 12 4 10.125 6.1875 C8 8 8 8 6 8 C5.34 9.32 4.68 10.64 4 12 C3.34 12 2.68 12 2 12 C2 12.66 2 13.32 2 14 C0.68 14.33 -0.64 14.66 -2 15 C-1.82374165 12.62051228 -1.30280227 11.29774151 0.40234375 9.62109375 C1.90649092 8.37884514 3.45129851 7.18623944 5 6 C4.67 5.01 4.34 4.02 4 3 C3.34 2.67 2.68 2.34 2 2 C1.34 4.31 0.68 6.62 0 9 C-0.66 9 -1.32 9 -2 9 C-1.34 6.03 -0.68 3.06 0 0 Z " fill="#A88543" transform="translate(1139,1335)"/>
<path d="M0 0 C0.33 1.32 0.66 2.64 1 4 C0.34 4 -0.32 4 -1 4 C-1.33 5.65 -1.66 7.3 -2 9 C-5 9 -5 9 -6.6875 7.5 C-7.120625 7.005 -7.55375 6.51 -8 6 C-8.66 7.32 -9.32 8.64 -10 10 C-10.66 9.01 -11.32 8.02 -12 7 C-10.63016497 3.83884224 -10.0109362 3.0072908 -7 1 C-4.67612053 0.60612212 -2.34206251 0.26513915 0 0 Z " fill="#AF8B49" transform="translate(2564,1335)"/>
<path d="M0 0 C0.825 0.144375 1.65 0.28875 2.5 0.4375 C5.0325349 0.84451454 7.51672478 1.16698119 10.0625 1.4375 C13.45024928 1.92146418 16.01103621 2.36965612 19 4 C19.33 4.99 19.66 5.98 20 7 C17.89551062 6.85890014 15.7914123 6.71195825 13.6875 6.5625 C12.51574219 6.48128906 11.34398438 6.40007813 10.13671875 6.31640625 C7 6 7 6 4 5 C4 4.34 4 3.68 4 3 C2.68 2.67 1.36 2.34 0 2 C0 1.34 0 0.68 0 0 Z " fill="#A58143" transform="translate(2771,943)"/>
<path d="M0 0 C1.32 0 2.64 0 4 0 C4.49230769 6.4 4.49230769 6.4 2 9.4375 C1.01 10.2109375 1.01 10.2109375 0 11 C-0.66 10.67 -1.32 10.34 -2 10 C-2.1953125 3.9453125 -2.1953125 3.9453125 -2 2 C-1.34 1.34 -0.68 0.68 0 0 Z " fill="#AB8948" transform="translate(2673,20)"/>
<path d="M0 0 C0.598125 0.20625 1.19625 0.4125 1.8125 0.625 C1.2265625 6.77734375 1.2265625 6.77734375 0.8125 8.625 C-0.1775 9.12 -0.1775 9.12 -1.1875 9.625 C-2.1775 9.295 -3.1675 8.965 -4.1875 8.625 C-4.5175 6.315 -4.8475 4.005 -5.1875 1.625 C-2.1875 -0.375 -2.1875 -0.375 0 0 Z " fill="#A88647" transform="translate(1369.1875,715.375)"/>
<path d="M0 0 C0.66 0.33 1.32 0.66 2 1 C1.875 3.3125 1.875 3.3125 1 6 C-0.98320018 7.03291676 -2.98347806 8.0337499 -5 9 C-5.96044102 11.07690578 -5.96044102 11.07690578 -6 13 C-6.66 12.67 -7.32 12.34 -8 12 C-8 10.35 -8 8.7 -8 7 C-7.34 7 -6.68 7 -6 7 C-5.67 5.68 -5.34 4.36 -5 3 C-4.01 3 -3.02 3 -2 3 C-2 2.34 -2 1.68 -2 1 C-1.34 0.67 -0.68 0.34 0 0 Z " fill="#AF8E4A" transform="translate(2143,59)"/>
<path d="M0 0 C0.33 0.66 0.66 1.32 1 2 C1.66 2.33 2.32 2.66 3 3 C2.01 4.485 2.01 4.485 1 6 C0.34 6 -0.32 6 -1 6 C-1 6.66 -1 7.32 -1 8 C-1.99 8.33 -2.98 8.66 -4 9 C-4.33 7.68 -4.66 6.36 -5 5 C-5.66 5 -6.32 5 -7 5 C-7.33 4.01 -7.66 3.02 -8 2 C-6.68 2 -5.36 2 -4 2 C-1.79932579 1.06716704 -1.79932579 1.06716704 0 0 Z " fill="#AD8747" transform="translate(810,1057)"/>
<path d="M0 0 C0.99 0.33 1.98 0.66 3 1 C3.04241723 3.33294775 3.04092937 5.66702567 3 8 C2 9 2 9 -0.5625 9.0625 C-1.366875 9.041875 -2.17125 9.02125 -3 9 C-3.1875 5.625 -3.1875 5.625 -3 2 C-2.01 1.34 -1.02 0.68 0 0 Z " fill="#9F7E41" transform="translate(2776,715)"/>
<path d="M0 0 C0.99 0.33 1.98 0.66 3 1 C3 2.98 3 4.96 3 7 C1.02 7.99 -0.96 8.98 -3 10 C-3.75 7.8125 -3.75 7.8125 -4 5 C-2.0625 2.1875 -2.0625 2.1875 0 0 Z " fill="#AC8A49" transform="translate(2753,1369)"/>
<path d="M0 0 C0.99 0.66 1.98 1.32 3 2 C0.11980724 3.46652017 -2.79308515 4.82047874 -5.75 6.125 C-6.54921875 6.47820313 -7.3484375 6.83140625 -8.171875 7.1953125 C-8.77515625 7.46085938 -9.3784375 7.72640625 -10 8 C-10 6.68 -10 5.36 -10 4 C-8.4032805 3.27503542 -6.79727392 2.57049603 -5.1875 1.875 C-4.29417969 1.48054687 -3.40085937 1.08609375 -2.48046875 0.6796875 C-1.25263672 0.34324219 -1.25263672 0.34324219 0 0 Z " fill="#A88443" transform="translate(2458,629)"/>
<path d="M0 0 C1.11375 0.3403125 1.11375 0.3403125 2.25 0.6875 C1.59 2.6675 0.93 4.6475 0.25 6.6875 C-2.72 6.1925 -2.72 6.1925 -5.75 5.6875 C-6.08 4.6975 -6.41 3.7075 -6.75 2.6875 C-4.29511132 0.41445492 -3.41240272 -0.38777304 0 0 Z " fill="#A78447" transform="translate(2738.75,230.3125)"/>
<path d="M0 0 C0 1.32 0 2.64 0 4 C-0.66 4 -1.32 4 -2 4 C-2.268125 4.61875 -2.53625 5.2375 -2.8125 5.875 C-4 8 -4 8 -7 10 C-6.39169139 3.55192878 -6.39169139 3.55192878 -4.625 1.0625 C-3 0 -3 0 0 0 Z " fill="#AF894A" transform="translate(913,1259)"/>
<path d="M0 0 C0.66 0 1.32 0 2 0 C3.15837626 4.05431692 2.83691257 6.21812119 1 10 C0.01 10 -0.98 10 -2 10 C-2 7.36 -2 4.72 -2 2 C-1.34 2 -0.68 2 0 2 C0 1.34 0 0.68 0 0 Z " fill="#BD9A5B" transform="translate(2767,158)"/>
<path d="M0 0 C0.33 0.66 0.66 1.32 1 2 C0.328125 3.875 0.328125 3.875 -0.75 6 C-1.26820312 7.051875 -1.26820312 7.051875 -1.796875 8.125 C-3 10 -3 10 -6 12 C-6 7.73350364 -5.43160605 6.36683915 -3 3 C-2.34 3 -1.68 3 -1 3 C-0.67 2.01 -0.34 1.02 0 0 Z " fill="#A88442" transform="translate(42,958)"/>
<path d="M0 0 C0.33 0.66 0.66 1.32 1 2 C-0.65 1.67 -2.3 1.34 -4 1 C-4.33 1.99 -4.66 2.98 -5 4 C-7.31 3.67 -9.62 3.34 -12 3 C-12 2.34 -12 1.68 -12 1 C-7.99297573 -1.83830886 -4.57335084 -0.89967558 0 0 Z " fill="#A68143" transform="translate(1830,664)"/>
<path d="M0 0 C2 0 4 0 6 0 C6 1.65 6 3.3 6 5 C3.69 5.66 1.38 6.32 -1 7 C-1.625 4.625 -1.625 4.625 -2 2 C-1.34 1.34 -0.68 0.68 0 0 Z " fill="#AE8A4B" transform="translate(2452,625)"/>
<path d="M0 0 C0.66 0 1.32 0 2 0 C2.33 0.66 2.66 1.32 3 2 C3.99 2 4.98 2 6 2 C5.34 4.31 4.68 6.62 4 9 C1.24338912 6.51015791 -0.60746455 4.79450934 -1 1 C-0.67 0.67 -0.34 0.34 0 0 Z " fill="#AA8547" transform="translate(811,1165)"/>
<path d="M0 0 C-0.7109375 1.953125 -0.7109375 1.953125 -2 4 C-4.1640625 4.609375 -4.1640625 4.609375 -6.625 4.75 C-7.44226563 4.80671875 -8.25953125 4.8634375 -9.1015625 4.921875 C-9.72804688 4.94765625 -10.35453125 4.9734375 -11 5 C-11 4.34 -11 3.68 -11 3 C-7.14243493 0.84694043 -4.44870215 -0.39253254 0 0 Z " fill="#A78344" transform="translate(969,961)"/>
<path d="M0 0 C0.99 0 1.98 0 3 0 C3.33 0.99 3.66 1.98 4 3 C3.01 4.485 3.01 4.485 2 6 C2 6.66 2 7.32 2 8 C0.02 8.33 -1.96 8.66 -4 9 C-3.71125 8.443125 -3.4225 7.88625 -3.125 7.3125 C-1.9586747 4.91505355 -0.9660119 2.48403061 0 0 Z " fill="#AC8D4B" transform="translate(796,443)"/>
<path d="M0 0 C0.66 0.33 1.32 0.66 2 1 C1.45276317 4.37462715 0.9451 6.08235 -1 9 C-1.66 9 -2.32 9 -3 9 C-3.75 7.3125 -3.75 7.3125 -4 5 C-2.0625 2.25 -2.0625 2.25 0 0 Z " fill="#B69759" transform="translate(2808,406)"/>
<path d="M0 0 C0.99 0 1.98 0 3 0 C5 2 5 2 5.125 5.125 C5.08375 6.07375 5.0425 7.0225 5 8 C4.01 8 3.02 8 2 8 C0.23537317 4.91190305 0 3.76687864 0 0 Z " fill="#AE8A48" transform="translate(1936,1312)"/>
<path d="M0 0 C0.99 0.33 1.98 0.66 3 1 C3 1.66 3 2.32 3 3 C3.66 3 4.32 3 5 3 C5.33 3.99 5.66 4.98 6 6 C5.01 6.66 4.02 7.32 3 8 C1 7 1 7 -0.125 3.9375 C-0.41375 2.968125 -0.7025 1.99875 -1 1 C-0.67 0.67 -0.34 0.34 0 0 Z " fill="#A78543" transform="translate(1552,1304)"/>
<path d="M0 0 C2.0625 0.4375 2.0625 0.4375 4 1 C3.45773019 4.79588866 1.79872437 6.47211993 -1 9 C-1.09765625 2.84765625 -1.09765625 2.84765625 -1 1 C-0.67 0.67 -0.34 0.34 0 0 Z " fill="#AE8B48" transform="translate(1937,1067)"/>
<path d="M0 0 C0.66 0 1.32 0 2 0 C2.20140476 3.62528568 1.85776765 5.86501708 0 9 C-1.32 9 -2.64 9 -4 9 C-3.35494404 5.51669784 -2.01782732 2.90567134 0 0 Z " fill="#BA9758" transform="translate(1360,163)"/>
<path d="M0 0 C2.1387261 3.20808915 2.47730962 4.27698497 2 8 C1.01 8.66 0.02 9.32 -1 10 C-3 8 -3 8 -3.125 5.375 C-3.08375 4.59125 -3.0425 3.8075 -3 3 C-2.01 3.495 -2.01 3.495 -1 4 C-0.67 2.68 -0.34 1.36 0 0 Z " fill="#AC8A47" transform="translate(2100,1125)"/>
<path d="M0 0 C0.99 0.33 1.98 0.66 3 1 C1.68 2.65 0.36 4.3 -1 6 C-2.32 5.67 -3.64 5.34 -5 5 C-5.33 3.68 -5.66 2.36 -6 1 C-4.7934375 1.0309375 -4.7934375 1.0309375 -3.5625 1.0625 C-1.06645115 1.29633621 -1.06645115 1.29633621 0 0 Z " fill="#AD8B49" transform="translate(2338,300)"/>
<path d="M0 0 C0.66 0 1.32 0 2 0 C1.34 2.31 0.68 4.62 0 7 C-0.66 7 -1.32 7 -2 7 C-2 7.66 -2 8.32 -2 9 C-2.99 8.67 -3.98 8.34 -5 8 C-4.21718695 6.66144944 -3.42348123 5.32926356 -2.625 4 C-2.18414062 3.2575 -1.74328125 2.515 -1.2890625 1.75 C-0.86367188 1.1725 -0.43828125 0.595 0 0 Z " fill="#A68344" transform="translate(338,2)"/>
<path d="M0 0 C0.33 1.65 0.66 3.3 1 5 C0.34 5 -0.32 5 -1 5 C-1 5.66 -1 6.32 -1 7 C-1.99 7 -2.98 7 -4 7 C-4.33 5.02 -4.66 3.04 -5 1 C-3 0 -3 0 0 0 Z " fill="#B08A48" transform="translate(289,1249)"/>
<path d="M0 0 C0.99 0.33 1.98 0.66 3 1 C3 3.97 3 6.94 3 10 C2.01 10.495 2.01 10.495 1 11 C-0.20272819 8.59454362 -0.10071472 7.05003047 -0.0625 4.375 C-0.05347656 3.55773437 -0.04445313 2.74046875 -0.03515625 1.8984375 C-0.02355469 1.27195312 -0.01195313 0.64546875 0 0 Z " fill="#A68243" transform="translate(109,952)"/>
<path d="M0 0 C0.99 0.33 1.98 0.66 3 1 C2.3125 3.4375 2.3125 3.4375 1 6 C-1.625 6.8125 -1.625 6.8125 -4 7 C-3.43628586 3.73045798 -2.50037734 2.17424117 0 0 Z " fill="#A17E3F" transform="translate(2747,943)"/>
<path d="M0 0 C0.33 0.66 0.66 1.32 1 2 C1.99 1.67 2.98 1.34 4 1 C3.67 2.98 3.34 4.96 3 7 C0 7 0 7 -1.6875 5.5 C-2.120625 5.005 -2.55375 4.51 -3 4 C-2.01 2.68 -1.02 1.36 0 0 Z " fill="#AD8947" transform="translate(296,1247)"/>
<path d="M0 0 C0 0.66 0 1.32 0 2 C-3.22791555 4.1519437 -4.28400809 4.20086443 -8 4 C-7 1 -7 1 -5.125 -0.25 C-3 -1 -3 -1 0 0 Z " fill="#A28040" transform="translate(2381,961)"/>
<path d="M0 0 C0 0.66 0 1.32 0 2 C-5.41538462 5.07692308 -5.41538462 5.07692308 -8.375 4.6875 C-8.91125 4.460625 -9.4475 4.23375 -10 4 C-9.34 4 -8.68 4 -8 4 C-7.67 3.01 -7.34 2.02 -7 1 C-4.53721199 -0.231394 -2.7204945 -0.07159196 0 0 Z " fill="#A78444" transform="translate(1051,630)"/>
<path d="M0 0 C0.99 0.33 1.98 0.66 3 1 C2.67 2.65 2.34 4.3 2 6 C0.35 5.67 -1.3 5.34 -3 5 C-2.01 3.35 -1.02 1.7 0 0 Z " fill="#A58543" transform="translate(735,59)"/>
<path d="M0 0 C3.03520175 1.76237521 3.89045606 2.61659622 4.875 6.0625 C4.91625 7.031875 4.9575 8.00125 5 9 C4.34 9.66 3.68 10.32 3 11 C1.68 7.7 0.36 4.4 -1 1 C-0.67 0.67 -0.34 0.34 0 0 Z " fill="#AE8B4A" transform="translate(2055,1347)"/>
<path d="M0 0 C2.0625 0.4375 2.0625 0.4375 4 1 C4.6875 2.8125 4.6875 2.8125 5 5 C3.5625 6.75 3.5625 6.75 2 8 C1.01 5.69 0.02 3.38 -1 1 C-0.67 0.67 -0.34 0.34 0 0 Z " fill="#AE8C4A" transform="translate(2081,1060)"/>
<path d="M0 0 C1.15941038 3.47823115 0.70820884 5.45895578 0 9 C-0.66 9 -1.32 9 -2 9 C-2.33 9.66 -2.66 10.32 -3 11 C-3.36923077 4.6 -3.36923077 4.6 -1.5 1.5625 C-1.005 1.046875 -0.51 0.53125 0 0 Z " fill="#AE8C49" transform="translate(607,82)"/>
<path d="M0 0 C0.99 0 1.98 0 3 0 C2.75 2.375 2.75 2.375 2 5 C-0.0625 6.3125 -0.0625 6.3125 -2 7 C-1.125 2.25 -1.125 2.25 0 0 Z " fill="#A58143" transform="translate(1744,4)"/>
<path d="M0 0 C-0.66 1.32 -1.32 2.64 -2 4 C-4.97 3.505 -4.97 3.505 -8 3 C-8 2.34 -8 1.68 -8 1 C-5.29120665 -0.35439668 -2.99066732 -0.06501451 0 0 Z " fill="#AE8C48" transform="translate(1861,1393)"/>
<path d="M0 0 C0.99 1.32 1.98 2.64 3 4 C2.01 5.485 2.01 5.485 1 7 C-0.32 6.67 -1.64 6.34 -3 6 C-2.42655063 3.13275314 -2.1385485 2.1385485 0 0 Z " fill="#AF8B47" transform="translate(1852,1139)"/>
<path d="M0 0 C0.66 0 1.32 0 2 0 C1.67 1.98 1.34 3.96 1 6 C-0.32 6 -1.64 6 -3 6 C-2.42655063 3.13275314 -2.1385485 2.1385485 0 0 Z " fill="#A38140" transform="translate(1266,25)"/>
<path d="M0 0 C0.33 1.32 0.66 2.64 1 4 C0.34 4 -0.32 4 -1 4 C-1 4.66 -1 5.32 -1 6 C-2.32 6.33 -3.64 6.66 -5 7 C-4.60196439 4.11424181 -4.20990931 3.17810487 -1.9375 1.25 C-1.298125 0.8375 -0.65875 0.425 0 0 Z " fill="#A07E3D" transform="translate(1142,1343)"/>
<path d="M0 0 C0.66 0.66 1.32 1.32 2 2 C1.01 2.495 1.01 2.495 0 3 C0 2.01 0 1.02 0 0 Z M-4 2 C-2.68 2.33 -1.36 2.66 0 3 C-0.66 5.31 -1.32 7.62 -2 10 C-4.1519437 6.77208445 -4.20086443 5.71599191 -4 2 Z " fill="#AB8948" transform="translate(454,993)"/>
<path d="M0 0 C0.33 0.99 0.66 1.98 1 3 C1.99 2.67 2.98 2.34 4 2 C4 4.97 4 7.94 4 11 C3.34 9.68 2.68 8.36 2 7 C1.34 6.67 0.68 6.34 0 6 C0 4.02 0 2.04 0 0 Z " fill="#B99757" transform="translate(2405,513)"/>
<path d="M0 0 C0.66 0 1.32 0 2 0 C2 1.65 2 3.3 2 5 C2.66 5 3.32 5 4 5 C4 5.99 4 6.98 4 8 C1 7 1 7 -0.25 4.5625 C-1 2 -1 2 0 0 Z " fill="#A78344" transform="translate(2223,1165)"/>
<path d="M0 0 C0.99 0.33 1.98 0.66 3 1 C1.92598892 3.91517292 1.22189824 5.77810176 -1 8 C-1.625 5.6875 -1.625 5.6875 -2 3 C-1.34 2.01 -0.68 1.02 0 0 Z " fill="#AE8B48" transform="translate(1780,1155)"/>
<path d="M0 0 C1.32 0 2.64 0 4 0 C4 0.99 4 1.98 4 3 C4.66 2.67 5.32 2.34 6 2 C5.67 3.65 5.34 5.3 5 7 C4.01 7 3.02 7 2 7 C1.67 6.34 1.34 5.68 1 5 C1.33 4.01 1.66 3.02 2 2 C1.34 2 0.68 2 0 2 C0 1.34 0 0.68 0 0 Z " fill="#BA9656" transform="translate(2457,867)"/>
<path d="M0 0 C0.33 0.66 0.66 1.32 1 2 C1.66 2 2.32 2 3 2 C2.67 4.31 2.34 6.62 2 9 C0.4375 7.3125 0.4375 7.3125 -1 5 C-0.6875 2.25 -0.6875 2.25 0 0 Z " fill="#AD8A48" transform="translate(1832,467)"/>
<path d="M0 0 C0.66 0.33 1.32 0.66 2 1 C1.67 1.66 1.34 2.32 1 3 C1.66 3 2.32 3 3 3 C3 2.34 3 1.68 3 1 C3.99 0.67 4.98 0.34 6 0 C5 2 4 4 3 6 C2.01 5.67 1.02 5.34 0 5 C-0.33 4.01 -0.66 3.02 -1 2 C-0.67 1.34 -0.34 0.68 0 0 Z " fill="#AE8B4B" transform="translate(698,153)"/>
<path d="M0 0 C0.66 0.33 1.32 0.66 2 1 C1.67 2.65 1.34 4.3 1 6 C0.01 6 -0.98 6 -2 6 C-2.33 5.01 -2.66 4.02 -3 3 C-2.01 2.01 -1.02 1.02 0 0 Z " fill="#A68443" transform="translate(2143,59)"/>
<path d="M0 0 C0 0.66 0 1.32 0 2 C-2.31 3.32 -4.62 4.64 -7 6 C-7 5.01 -7 4.02 -7 3 C-4.46815512 0.64276511 -3.52809907 0 0 0 Z " fill="#AC8948" transform="translate(1463,1356)"/>
<path d="M0 0 C0.66 0.33 1.32 0.66 2 1 C0.77065985 4.68802044 -0.93859378 5.72356973 -4 8 C-4.33 7.01 -4.66 6.02 -5 5 C-4.34 5 -3.68 5 -3 5 C-2.5359375 4.0409375 -2.5359375 4.0409375 -2.0625 3.0625 C-1 1 -1 1 0 0 Z " fill="#AF8A48" transform="translate(457,1246)"/>
<path d="M0 0 C2.475 0.99 2.475 0.99 5 2 C4.34 3.32 3.68 4.64 3 6 C2.34 6 1.68 6 1 6 C0.67 4.02 0.34 2.04 0 0 Z " fill="#A78445" transform="translate(2700,907)"/>
<path d="M0 0 C-0.33 1.65 -0.66 3.3 -1 5 C-2.32 4.34 -3.64 3.68 -5 3 C-5 2.34 -5 1.68 -5 1 C-3 0 -3 0 0 0 Z " fill="#A07F40" transform="translate(980,367)"/>
<path d="M0 0 C0.99 0 1.98 0 3 0 C2.34 2.31 1.68 4.62 1 7 C0.34 7 -0.32 7 -1 7 C-1.04254356 5.00045254 -1.04080783 2.99958364 -1 1 C-0.67 0.67 -0.34 0.34 0 0 Z " fill="#B89958" transform="translate(2104,19)"/>
<path d="M0 0 C0.99 0.66 1.98 1.32 3 2 C2.34 3.65 1.68 5.3 1 7 C-0.32 6.34 -1.64 5.68 -3 5 C-2.01 3.35 -1.02 1.7 0 0 Z " fill="#A88646" transform="translate(2764,943)"/>
<path d="M0 0 C0.66 0 1.32 0 2 0 C2.33 2.31 2.66 4.62 3 7 C2.01 7.495 2.01 7.495 1 8 C0.26919734 6.02253397 -0.39421747 4.01927511 -1 2 C-0.67 1.34 -0.34 0.68 0 0 Z " fill="#A07F41" transform="translate(1367,717)"/>
<path d="M0 0 C1.32 0.66 2.64 1.32 4 2 C2.625 3.5 2.625 3.5 1 5 C0.34 5 -0.32 5 -1 5 C-0.67 3.35 -0.34 1.7 0 0 Z " fill="#AE8B49" transform="translate(2051,324)"/>
<path d="M0 0 C0.66 0.33 1.32 0.66 2 1 C1.67 2.32 1.34 3.64 1 5 C1.66 5 2.32 5 3 5 C3 5.99 3 6.98 3 8 C2.34 8 1.68 8 1 8 C-2 3.61538462 -2 3.61538462 -2 1 C-1.34 0.67 -0.68 0.34 0 0 Z " fill="#AB8A46" transform="translate(523,308)"/>
<path d="M0 0 C0.99 0.33 1.98 0.66 3 1 C3.875 2.875 3.875 2.875 4 5 C2.5625 6.75 2.5625 6.75 1 8 C1 7.01 1 6.02 1 5 C0.68911632 3.32900023 0.35919668 1.66128463 0 0 Z " fill="#A88547" transform="translate(2761,75)"/>
<path d="M0 0 C0.99 0 1.98 0 3 0 C3.33 1.65 3.66 3.3 4 5 C2.35 5 0.7 5 -1 5 C-0.67 3.35 -0.34 1.7 0 0 Z " fill="#AF8C49" transform="translate(1828,1407)"/>
<path d="M0 0 C0.99 0.33 1.98 0.66 3 1 C2.34 2.32 1.68 3.64 1 5 C0.01 4.67 -0.98 4.34 -2 4 C-2 3.01 -2 2.02 -2 1 C-1.34 0.67 -0.68 0.34 0 0 Z " fill="#AE8B48" transform="translate(1728,1251)"/>
<path d="M0 0 C0.99 0 1.98 0 3 0 C3 1.98 3 3.96 3 6 C2.01 6.495 2.01 6.495 1 7 C0.67 4.69 0.34 2.38 0 0 Z " fill="#AB8A48" transform="translate(2159,1070)"/>
<path d="M0 0 C-1 3 -1 3 -3.0625 4.1875 C-3.701875 4.455625 -4.34125 4.72375 -5 5 C-5.33 3.68 -5.66 2.36 -6 1 C-3 0 -3 0 0 0 Z " fill="#B99657" transform="translate(2047,919)"/>
<path d="M0 0 C2.97 0.495 2.97 0.495 6 1 C5.67 1.99 5.34 2.98 5 4 C3.68 4 2.36 4 1 4 C0.67 2.68 0.34 1.36 0 0 Z " fill="#A78440" transform="translate(1290,888)"/>
<path d="M0 0 C0 3 0 3 -2 5.1875 C-2.66 5.785625 -3.32 6.38375 -4 7 C-4.33 5.68 -4.66 4.36 -5 3 C-3.35 2.01 -1.7 1.02 0 0 Z " fill="#AC8C4A" transform="translate(693,71)"/>
</svg>
